<svg width="558" height="540" viewBox="0 0 558 540" fill="none" xmlns="http://www.w3.org/2000/svg">
<rect width="558" height="540" fill="white"/>
<rect width="393" height="354" transform="translate(81 93)" fill="white"/>
<mask id="mask0_5_2" style="mask-type:alpha" maskUnits="userSpaceOnUse" x="82" y="94" width="391" height="351">
<path d="M90 102H100.135V345.243H90V102Z" fill="#D9D9D9"/>
<path d="M454.865 102H465V345.243H454.865V102Z" fill="#D9D9D9"/>
<path d="M211.622 233.757H221.757V436.459H211.622V233.757Z" fill="#D9D9D9"/>
<path d="M221.757 289.5C221.757 280.849 220.053 272.282 216.742 264.289C213.431 256.297 208.579 249.034 202.461 242.917C196.344 236.8 189.082 231.947 181.089 228.636C173.096 225.326 164.53 223.622 155.878 223.622C147.227 223.622 138.661 225.326 130.668 228.636C122.675 231.947 115.413 236.8 109.295 242.917C103.178 249.034 98.3254 256.297 95.0147 264.289C91.704 272.282 90 280.849 90 289.5H99.8818C99.8818 282.146 101.33 274.865 104.144 268.071C106.958 261.277 111.083 255.104 116.283 249.904C121.483 244.705 127.656 240.58 134.449 237.766C141.243 234.952 148.525 233.503 155.878 233.503C163.232 233.503 170.514 234.952 177.307 237.766C184.101 240.58 190.274 244.705 195.474 249.904C200.674 255.104 204.798 261.277 207.613 268.071C210.427 274.865 211.875 282.146 211.875 289.5H221.757Z" fill="#D9D9D9"/>
<path d="M343.378 289.5C343.378 325.884 313.884 355.378 277.5 355.378C241.116 355.378 211.622 325.884 211.622 289.5C211.622 253.116 241.116 223.622 277.5 223.622C313.884 223.622 343.378 253.116 343.378 289.5ZM221.503 289.5C221.503 320.426 246.574 345.497 277.5 345.497C308.426 345.497 333.497 320.426 333.497 289.5C333.497 258.574 308.426 233.503 277.5 233.503C246.574 233.503 221.503 258.574 221.503 289.5Z" fill="#D9D9D9"/>
<path d="M465 289.5C465 325.884 435.505 355.378 399.122 355.378C362.738 355.378 333.243 325.884 333.243 289.5C333.243 253.116 362.738 223.622 399.122 223.622C435.505 223.622 465 253.116 465 289.5ZM343.125 289.5C343.125 320.426 368.196 345.497 399.122 345.497C430.048 345.497 455.118 320.426 455.118 289.5C455.118 258.574 430.048 233.503 399.122 233.503C368.196 233.503 343.125 258.574 343.125 289.5Z" fill="#D9D9D9"/>
<path d="M90 102H100.135V345.243H90V102Z" stroke="black" stroke-width="15.2027"/>
<path d="M454.865 102H465V345.243H454.865V102Z" stroke="black" stroke-width="15.2027"/>
<path d="M211.622 233.757H221.757V436.459H211.622V233.757Z" stroke="black" stroke-width="15.2027"/>
<path d="M221.757 289.5C221.757 280.849 220.053 272.282 216.742 264.289C213.431 256.297 208.579 249.034 202.461 242.917C196.344 236.8 189.082 231.947 181.089 228.636C173.096 225.326 164.53 223.622 155.878 223.622C147.227 223.622 138.661 225.326 130.668 228.636C122.675 231.947 115.413 236.8 109.295 242.917C103.178 249.034 98.3254 256.297 95.0147 264.289C91.704 272.282 90 280.849 90 289.5H99.8818C99.8818 282.146 101.33 274.865 104.144 268.071C106.958 261.277 111.083 255.104 116.283 249.904C121.483 244.705 127.656 240.58 134.449 237.766C141.243 234.952 148.525 233.503 155.878 233.503C163.232 233.503 170.514 234.952 177.307 237.766C184.101 240.58 190.274 244.705 195.474 249.904C200.674 255.104 204.798 261.277 207.613 268.071C210.427 274.865 211.875 282.146 211.875 289.5H221.757Z" stroke="black" stroke-width="15.2027"/>
<path d="M343.378 289.5C343.378 325.884 313.884 355.378 277.5 355.378C241.116 355.378 211.622 325.884 211.622 289.5C211.622 253.116 241.116 223.622 277.5 223.622C313.884 223.622 343.378 253.116 343.378 289.5ZM221.503 289.5C221.503 320.426 246.574 345.497 277.5 345.497C308.426 345.497 333.497 320.426 333.497 289.5C333.497 258.574 308.426 233.503 277.5 233.503C246.574 233.503 221.503 258.574 221.503 289.5Z" stroke="black" stroke-width="15.2027"/>
<path d="M465 289.5C465 325.884 435.505 355.378 399.122 355.378C362.738 355.378 333.243 325.884 333.243 289.5C333.243 253.116 362.738 223.622 399.122 223.622C435.505 223.622 465 253.116 465 289.5ZM343.125 289.5C343.125 320.426 368.196 345.497 399.122 345.497C430.048 345.497 455.118 320.426 455.118 289.5C455.118 258.574 430.048 233.503 399.122 233.503C368.196 233.503 343.125 258.574 343.125 289.5Z" stroke="black" stroke-width="15.2027"/>
</mask>
<g mask="url(#mask0_5_2)">
<rect x="59.5946" y="88.9248" width="147.405" height="350.474" fill="black"/>
<rect x="336" y="77.7777" width="148.257" height="352.499" fill="#31A7AC"/>
<rect x="204" y="101.741" width="134.34" height="345.113" fill="#FA6E80"/>
</g>
<path d="M351 289.5C351 330.093 318.093 363 277.5 363C236.907 363 204 330.093 204 289.5C204 248.907 236.907 216 277.5 216C318.093 216 351 248.907 351 289.5ZM229.314 289.5C229.314 316.112 250.888 337.686 277.5 337.686C304.112 337.686 325.686 316.112 325.686 289.5C325.686 262.888 304.112 241.314 277.5 241.314C250.888 241.314 229.314 262.888 229.314 289.5Z" fill="#FA6E80"/>
</svg>
